<mxfile>
    <diagram id="Kgr80wTlGjRWLd_0YA3K" name="Page-1">
        <mxGraphModel dx="1119" dy="815" grid="1" gridSize="10" guides="1" tooltips="1" connect="1" arrows="1" fold="1" page="1" pageScale="1" pageWidth="827" pageHeight="1169" math="0" shadow="0">
            <root>
                <mxCell id="0"/>
                <mxCell id="1" parent="0"/>
                <mxCell id="2" value="AdminUser" style="swimlane;fontStyle=1;align=center;verticalAlign=top;childLayout=stackLayout;horizontal=1;startSize=26;horizontalStack=0;resizeParent=1;resizeParentMax=0;resizeLast=0;collapsible=1;marginBottom=0;" vertex="1" parent="1">
                    <mxGeometry x="80" y="240" width="170" height="150" as="geometry"/>
                </mxCell>
                <mxCell id="3" value="- username: string&#10;- password: string&#10;-Â " style="text;strokeColor=none;fillColor=none;align=left;verticalAlign=top;spacingLeft=4;spacingRight=4;overflow=hidden;rotatable=0;points=[[0,0.5],[1,0.5]];portConstraint=eastwest;" vertex="1" parent="2">
                    <mxGeometry y="26" width="170" height="74" as="geometry"/>
                </mxCell>
                <mxCell id="4" value="" style="line;strokeWidth=1;fillColor=none;align=left;verticalAlign=middle;spacingTop=-1;spacingLeft=3;spacingRight=3;rotatable=0;labelPosition=right;points=[];portConstraint=eastwest;" vertex="1" parent="2">
                    <mxGeometry y="100" width="170" height="8" as="geometry"/>
                </mxCell>
                <mxCell id="5" value="+ method(type): type" style="text;strokeColor=none;fillColor=none;align=left;verticalAlign=top;spacingLeft=4;spacingRight=4;overflow=hidden;rotatable=0;points=[[0,0.5],[1,0.5]];portConstraint=eastwest;" vertex="1" parent="2">
                    <mxGeometry y="108" width="170" height="42" as="geometry"/>
                </mxCell>
                <mxCell id="6" value="User" style="swimlane;fontStyle=1;align=center;verticalAlign=top;childLayout=stackLayout;horizontal=1;startSize=26;horizontalStack=0;resizeParent=1;resizeParentMax=0;resizeLast=0;collapsible=1;marginBottom=0;" vertex="1" parent="1">
                    <mxGeometry x="80" y="480" width="170" height="200" as="geometry"/>
                </mxCell>
                <mxCell id="7" value="- username: string&#10;- password: string&#10;- email_address: string&#10;- id: int&#10;- first_name: string&#10;- last_name: string&#10;- current_balance: float&#10;- plan: int" style="text;strokeColor=none;fillColor=none;align=left;verticalAlign=top;spacingLeft=4;spacingRight=4;overflow=hidden;rotatable=0;points=[[0,0.5],[1,0.5]];portConstraint=eastwest;" vertex="1" parent="6">
                    <mxGeometry y="26" width="170" height="124" as="geometry"/>
                </mxCell>
                <mxCell id="8" value="" style="line;strokeWidth=1;fillColor=none;align=left;verticalAlign=middle;spacingTop=-1;spacingLeft=3;spacingRight=3;rotatable=0;labelPosition=right;points=[];portConstraint=eastwest;" vertex="1" parent="6">
                    <mxGeometry y="150" width="170" height="8" as="geometry"/>
                </mxCell>
                <mxCell id="9" value="+ method(type): type" style="text;strokeColor=none;fillColor=none;align=left;verticalAlign=top;spacingLeft=4;spacingRight=4;overflow=hidden;rotatable=0;points=[[0,0.5],[1,0.5]];portConstraint=eastwest;" vertex="1" parent="6">
                    <mxGeometry y="158" width="170" height="42" as="geometry"/>
                </mxCell>
                <mxCell id="10" value="Program" style="swimlane;fontStyle=1;align=center;verticalAlign=top;childLayout=stackLayout;horizontal=1;startSize=26;horizontalStack=0;resizeParent=1;resizeParentMax=0;resizeLast=0;collapsible=1;marginBottom=0;" vertex="1" parent="1">
                    <mxGeometry x="360" y="240" width="170" height="120" as="geometry"/>
                </mxCell>
                <mxCell id="11" value="- users: list&lt;User&gt;" style="text;strokeColor=none;fillColor=none;align=left;verticalAlign=top;spacingLeft=4;spacingRight=4;overflow=hidden;rotatable=0;points=[[0,0.5],[1,0.5]];portConstraint=eastwest;" vertex="1" parent="10">
                    <mxGeometry y="26" width="170" height="44" as="geometry"/>
                </mxCell>
                <mxCell id="12" value="" style="line;strokeWidth=1;fillColor=none;align=left;verticalAlign=middle;spacingTop=-1;spacingLeft=3;spacingRight=3;rotatable=0;labelPosition=right;points=[];portConstraint=eastwest;" vertex="1" parent="10">
                    <mxGeometry y="70" width="170" height="8" as="geometry"/>
                </mxCell>
                <mxCell id="13" value="+ main()" style="text;strokeColor=none;fillColor=none;align=left;verticalAlign=top;spacingLeft=4;spacingRight=4;overflow=hidden;rotatable=0;points=[[0,0.5],[1,0.5]];portConstraint=eastwest;" vertex="1" parent="10">
                    <mxGeometry y="78" width="170" height="42" as="geometry"/>
                </mxCell>
                <mxCell id="14" value="LoginMenu" style="swimlane;fontStyle=1;align=center;verticalAlign=top;childLayout=stackLayout;horizontal=1;startSize=26;horizontalStack=0;resizeParent=1;resizeParentMax=0;resizeLast=0;collapsible=1;marginBottom=0;" vertex="1" parent="1">
                    <mxGeometry x="660" y="240" width="170" height="180" as="geometry"/>
                </mxCell>
                <mxCell id="15" value="-" style="text;strokeColor=none;fillColor=none;align=left;verticalAlign=top;spacingLeft=4;spacingRight=4;overflow=hidden;rotatable=0;points=[[0,0.5],[1,0.5]];portConstraint=eastwest;" vertex="1" parent="14">
                    <mxGeometry y="26" width="170" height="24" as="geometry"/>
                </mxCell>
                <mxCell id="16" value="" style="line;strokeWidth=1;fillColor=none;align=left;verticalAlign=middle;spacingTop=-1;spacingLeft=3;spacingRight=3;rotatable=0;labelPosition=right;points=[];portConstraint=eastwest;" vertex="1" parent="14">
                    <mxGeometry y="50" width="170" height="8" as="geometry"/>
                </mxCell>
                <mxCell id="17" value="+ show()&#10;+ get_selection()&#10;+ login()&#10;+ register_user()&#10;+validate_phone_number()&#10;+show_plan_menu()&#10;+ show_register_user_menu()" style="text;strokeColor=none;fillColor=none;align=left;verticalAlign=top;spacingLeft=4;spacingRight=4;overflow=hidden;rotatable=0;points=[[0,0.5],[1,0.5]];portConstraint=eastwest;" vertex="1" parent="14">
                    <mxGeometry y="58" width="170" height="122" as="geometry"/>
                </mxCell>
                <mxCell id="18" value="UserMenu" style="swimlane;fontStyle=1;align=center;verticalAlign=top;childLayout=stackLayout;horizontal=1;startSize=26;horizontalStack=0;resizeParent=1;resizeParentMax=0;resizeLast=0;collapsible=1;marginBottom=0;" vertex="1" parent="1">
                    <mxGeometry x="550" y="480" width="180" height="140" as="geometry"/>
                </mxCell>
                <mxCell id="19" value="-" style="text;strokeColor=none;fillColor=none;align=left;verticalAlign=top;spacingLeft=4;spacingRight=4;overflow=hidden;rotatable=0;points=[[0,0.5],[1,0.5]];portConstraint=eastwest;" vertex="1" parent="18">
                    <mxGeometry y="26" width="180" height="24" as="geometry"/>
                </mxCell>
                <mxCell id="20" value="" style="line;strokeWidth=1;fillColor=none;align=left;verticalAlign=middle;spacingTop=-1;spacingLeft=3;spacingRight=3;rotatable=0;labelPosition=right;points=[];portConstraint=eastwest;" vertex="1" parent="18">
                    <mxGeometry y="50" width="180" height="8" as="geometry"/>
                </mxCell>
                <mxCell id="21" value="+ show(user: User)&#10;+ get_selection(user: User)&#10;+ account_balance(user: User)&#10;+change_plan(user: User)&#10;+ report()" style="text;strokeColor=none;fillColor=none;align=left;verticalAlign=top;spacingLeft=4;spacingRight=4;overflow=hidden;rotatable=0;points=[[0,0.5],[1,0.5]];portConstraint=eastwest;" vertex="1" parent="18">
                    <mxGeometry y="58" width="180" height="82" as="geometry"/>
                </mxCell>
                <mxCell id="22" value="AdminMenu" style="swimlane;fontStyle=1;align=center;verticalAlign=top;childLayout=stackLayout;horizontal=1;startSize=26;horizontalStack=0;resizeParent=1;resizeParentMax=0;resizeLast=0;collapsible=1;marginBottom=0;" vertex="1" parent="1">
                    <mxGeometry x="760" y="480" width="180" height="140" as="geometry"/>
                </mxCell>
                <mxCell id="23" value="-" style="text;strokeColor=none;fillColor=none;align=left;verticalAlign=top;spacingLeft=4;spacingRight=4;overflow=hidden;rotatable=0;points=[[0,0.5],[1,0.5]];portConstraint=eastwest;" vertex="1" parent="22">
                    <mxGeometry y="26" width="180" height="24" as="geometry"/>
                </mxCell>
                <mxCell id="24" value="" style="line;strokeWidth=1;fillColor=none;align=left;verticalAlign=middle;spacingTop=-1;spacingLeft=3;spacingRight=3;rotatable=0;labelPosition=right;points=[];portConstraint=eastwest;" vertex="1" parent="22">
                    <mxGeometry y="50" width="180" height="8" as="geometry"/>
                </mxCell>
                <mxCell id="25" value="+ show()&#10;+ get_selection()&#10;+ view_customer_report()&#10;+per_plan_report()&#10;+general_report()" style="text;strokeColor=none;fillColor=none;align=left;verticalAlign=top;spacingLeft=4;spacingRight=4;overflow=hidden;rotatable=0;points=[[0,0.5],[1,0.5]];portConstraint=eastwest;" vertex="1" parent="22">
                    <mxGeometry y="58" width="180" height="82" as="geometry"/>
                </mxCell>
                <mxCell id="34" value="Topup" style="swimlane;fontStyle=1;align=center;verticalAlign=top;childLayout=stackLayout;horizontal=1;startSize=26;horizontalStack=0;resizeParent=1;resizeParentMax=0;resizeLast=0;collapsible=1;marginBottom=0;" vertex="1" parent="1">
                    <mxGeometry x="80" y="740" width="170" height="200" as="geometry"/>
                </mxCell>
                <mxCell id="35" value="- phone_number: string&#10;- charged: float&#10;- plan: int&#10;- date: date" style="text;strokeColor=none;fillColor=none;align=left;verticalAlign=top;spacingLeft=4;spacingRight=4;overflow=hidden;rotatable=0;points=[[0,0.5],[1,0.5]];portConstraint=eastwest;" vertex="1" parent="34">
                    <mxGeometry y="26" width="170" height="124" as="geometry"/>
                </mxCell>
                <mxCell id="36" value="" style="line;strokeWidth=1;fillColor=none;align=left;verticalAlign=middle;spacingTop=-1;spacingLeft=3;spacingRight=3;rotatable=0;labelPosition=right;points=[];portConstraint=eastwest;" vertex="1" parent="34">
                    <mxGeometry y="150" width="170" height="8" as="geometry"/>
                </mxCell>
                <mxCell id="37" value="+ method(type): type" style="text;strokeColor=none;fillColor=none;align=left;verticalAlign=top;spacingLeft=4;spacingRight=4;overflow=hidden;rotatable=0;points=[[0,0.5],[1,0.5]];portConstraint=eastwest;" vertex="1" parent="34">
                    <mxGeometry y="158" width="170" height="42" as="geometry"/>
                </mxCell>
                <mxCell id="38" value="ReportBuilder" style="swimlane;fontStyle=1;align=center;verticalAlign=top;childLayout=stackLayout;horizontal=1;startSize=26;horizontalStack=0;resizeParent=1;resizeParentMax=0;resizeLast=0;collapsible=1;marginBottom=0;" vertex="1" parent="1">
                    <mxGeometry x="655" y="720" width="180" height="160" as="geometry"/>
                </mxCell>
                <mxCell id="39" value="-" style="text;strokeColor=none;fillColor=none;align=left;verticalAlign=top;spacingLeft=4;spacingRight=4;overflow=hidden;rotatable=0;points=[[0,0.5],[1,0.5]];portConstraint=eastwest;" vertex="1" parent="38">
                    <mxGeometry y="26" width="180" height="24" as="geometry"/>
                </mxCell>
                <mxCell id="40" value="" style="line;strokeWidth=1;fillColor=none;align=left;verticalAlign=middle;spacingTop=-1;spacingLeft=3;spacingRight=3;rotatable=0;labelPosition=right;points=[];portConstraint=eastwest;" vertex="1" parent="38">
                    <mxGeometry y="50" width="180" height="8" as="geometry"/>
                </mxCell>
                <mxCell id="41" value="+ user_topup_history()&#10;+ user_plan_history()&#10;+ admin_per_plan_report()&#10;+admin_general_report()&#10;+ get_start_date()&#10;+ get_end_date()&#10;" style="text;strokeColor=none;fillColor=none;align=left;verticalAlign=top;spacingLeft=4;spacingRight=4;overflow=hidden;rotatable=0;points=[[0,0.5],[1,0.5]];portConstraint=eastwest;" vertex="1" parent="38">
                    <mxGeometry y="58" width="180" height="102" as="geometry"/>
                </mxCell>
                <mxCell id="42" value="" style="endArrow=diamondThin;endFill=0;endSize=24;html=1;entryX=0.476;entryY=0.976;entryDx=0;entryDy=0;entryPerimeter=0;" edge="1" parent="1" target="9">
                    <mxGeometry width="160" relative="1" as="geometry">
                        <mxPoint x="161" y="740" as="sourcePoint"/>
                        <mxPoint x="165" y="690" as="targetPoint"/>
                    </mxGeometry>
                </mxCell>
                <mxCell id="43" value="0..n" style="edgeLabel;html=1;align=center;verticalAlign=middle;resizable=0;points=[];" vertex="1" connectable="0" parent="42">
                    <mxGeometry x="-0.5739" y="-1" relative="1" as="geometry">
                        <mxPoint as="offset"/>
                    </mxGeometry>
                </mxCell>
                <mxCell id="44" value="" style="endArrow=diamondThin;endFill=0;endSize=24;html=1;" edge="1" parent="1">
                    <mxGeometry width="160" relative="1" as="geometry">
                        <mxPoint x="358" y="280" as="sourcePoint"/>
                        <mxPoint x="250" y="280" as="targetPoint"/>
                    </mxGeometry>
                </mxCell>
                <mxCell id="45" value="0..n" style="edgeLabel;html=1;align=center;verticalAlign=middle;resizable=0;points=[];" vertex="1" connectable="0" parent="44">
                    <mxGeometry x="-0.5739" y="-1" relative="1" as="geometry">
                        <mxPoint x="-46" y="-13" as="offset"/>
                    </mxGeometry>
                </mxCell>
                <mxCell id="46" value="" style="endArrow=diamondThin;endFill=0;endSize=24;html=1;exitX=-0.012;exitY=0.318;exitDx=0;exitDy=0;exitPerimeter=0;entryX=1;entryY=0;entryDx=0;entryDy=0;" edge="1" parent="1" target="6">
                    <mxGeometry width="160" relative="1" as="geometry">
                        <mxPoint x="360.00000000000006" y="329.50199999999995" as="sourcePoint"/>
                        <mxPoint x="255" y="480" as="targetPoint"/>
                    </mxGeometry>
                </mxCell>
                <mxCell id="47" value="0..n" style="edgeLabel;html=1;align=center;verticalAlign=middle;resizable=0;points=[];" vertex="1" connectable="0" parent="46">
                    <mxGeometry x="-0.5739" y="-1" relative="1" as="geometry">
                        <mxPoint x="-56" y="99" as="offset"/>
                    </mxGeometry>
                </mxCell>
                <mxCell id="48" value="" style="endArrow=diamondThin;endFill=0;endSize=24;html=1;entryX=0;entryY=0.5;entryDx=0;entryDy=0;" edge="1" parent="1" target="15">
                    <mxGeometry width="160" relative="1" as="geometry">
                        <mxPoint x="532" y="278" as="sourcePoint"/>
                        <mxPoint x="260" y="290" as="targetPoint"/>
                    </mxGeometry>
                </mxCell>
                <mxCell id="49" value="0..n" style="edgeLabel;html=1;align=center;verticalAlign=middle;resizable=0;points=[];" vertex="1" connectable="0" parent="48">
                    <mxGeometry x="-0.5739" y="-1" relative="1" as="geometry">
                        <mxPoint x="-46" y="-13" as="offset"/>
                    </mxGeometry>
                </mxCell>
                <mxCell id="50" value="1" style="edgeLabel;html=1;align=center;verticalAlign=middle;resizable=0;points=[];" vertex="1" connectable="0" parent="48">
                    <mxGeometry x="0.0156" y="-2" relative="1" as="geometry">
                        <mxPoint x="33" y="-20" as="offset"/>
                    </mxGeometry>
                </mxCell>
                <mxCell id="52" value="" style="endArrow=diamondThin;endFill=0;endSize=24;html=1;entryX=0.5;entryY=0;entryDx=0;entryDy=0;" edge="1" parent="1" target="18">
                    <mxGeometry width="160" relative="1" as="geometry">
                        <mxPoint x="720" y="421" as="sourcePoint"/>
                        <mxPoint x="670" y="288" as="targetPoint"/>
                    </mxGeometry>
                </mxCell>
                <mxCell id="53" value="0..n" style="edgeLabel;html=1;align=center;verticalAlign=middle;resizable=0;points=[];" vertex="1" connectable="0" parent="52">
                    <mxGeometry x="-0.5739" y="-1" relative="1" as="geometry">
                        <mxPoint x="-46" y="-13" as="offset"/>
                    </mxGeometry>
                </mxCell>
                <mxCell id="54" value="0..1" style="edgeLabel;html=1;align=center;verticalAlign=middle;resizable=0;points=[];" vertex="1" connectable="0" parent="52">
                    <mxGeometry x="0.0156" y="-2" relative="1" as="geometry">
                        <mxPoint x="-9" y="-9" as="offset"/>
                    </mxGeometry>
                </mxCell>
                <mxCell id="55" value="" style="endArrow=diamondThin;endFill=0;endSize=24;html=1;entryX=0.5;entryY=0;entryDx=0;entryDy=0;exitX=0.588;exitY=1.016;exitDx=0;exitDy=0;exitPerimeter=0;" edge="1" parent="1" source="17" target="22">
                    <mxGeometry width="160" relative="1" as="geometry">
                        <mxPoint x="730" y="431" as="sourcePoint"/>
                        <mxPoint x="650" y="490" as="targetPoint"/>
                    </mxGeometry>
                </mxCell>
                <mxCell id="57" value="0..1" style="edgeLabel;html=1;align=center;verticalAlign=middle;resizable=0;points=[];" vertex="1" connectable="0" parent="55">
                    <mxGeometry x="0.0156" y="-2" relative="1" as="geometry">
                        <mxPoint x="16" y="-13" as="offset"/>
                    </mxGeometry>
                </mxCell>
                <mxCell id="58" value="" style="endArrow=diamondThin;endFill=0;endSize=24;html=1;exitX=0.461;exitY=1;exitDx=0;exitDy=0;exitPerimeter=0;" edge="1" parent="1" source="25">
                    <mxGeometry width="160" relative="1" as="geometry">
                        <mxPoint x="730" y="431" as="sourcePoint"/>
                        <mxPoint x="760" y="718" as="targetPoint"/>
                    </mxGeometry>
                </mxCell>
                <mxCell id="60" value="0..1" style="edgeLabel;html=1;align=center;verticalAlign=middle;resizable=0;points=[];" vertex="1" connectable="0" parent="58">
                    <mxGeometry x="0.0156" y="-2" relative="1" as="geometry">
                        <mxPoint x="-9" y="-9" as="offset"/>
                    </mxGeometry>
                </mxCell>
                <mxCell id="61" value="" style="endArrow=diamondThin;endFill=0;endSize=24;html=1;exitX=0.494;exitY=1.024;exitDx=0;exitDy=0;exitPerimeter=0;entryX=0.372;entryY=-0.006;entryDx=0;entryDy=0;entryPerimeter=0;" edge="1" parent="1" source="21" target="38">
                    <mxGeometry width="160" relative="1" as="geometry">
                        <mxPoint x="852.98" y="630" as="sourcePoint"/>
                        <mxPoint x="770" y="728" as="targetPoint"/>
                    </mxGeometry>
                </mxCell>
                <mxCell id="62" value="0..1" style="edgeLabel;html=1;align=center;verticalAlign=middle;resizable=0;points=[];" vertex="1" connectable="0" parent="61">
                    <mxGeometry x="0.0156" y="-2" relative="1" as="geometry">
                        <mxPoint x="-9" y="-9" as="offset"/>
                    </mxGeometry>
                </mxCell>
            </root>
        </mxGraphModel>
    </diagram>
</mxfile>